<?xml version="1.0" encoding="utf-8"?>
<!-- Generator: Adobe Illustrator 24.1.0, SVG Export Plug-In . SVG Version: 6.00 Build 0)  -->
<svg version="1.1" id="Capa_1" xmlns="http://www.w3.org/2000/svg" xmlns:xlink="http://www.w3.org/1999/xlink" x="0px" y="0px"
	 viewBox="0 0 58.84 65.39" enable-background="new 0 0 58.84 65.39" xml:space="preserve">
<path fill="#FFFFFF" d="M58.7,63.43l-6.61-43.59c-0.11-0.73-0.74-1.27-1.48-1.28l-9.24-0.03v-4.36C41.37,6.53,36,0.32,29.4,0.32
	S17.42,6.53,17.42,14.17v4.28l-9.84-0.03c0,0,0,0,0,0c-0.75,0-1.39,0.56-1.49,1.3L0.32,63.46c-0.06,0.43,0.07,0.86,0.36,1.19
	c0.29,0.32,0.7,0.51,1.13,0.51h55.41c0.44,0,0.85-0.19,1.14-0.52C58.64,64.3,58.77,63.86,58.7,63.43z M20.42,14.17
	c0-5.99,4.03-10.86,8.98-10.86s8.98,4.87,8.98,10.86v4.35l-17.95-0.06V14.17z M8.89,21.42l8.53,0.03v6.3
	C16.57,28.24,16,29.14,16,30.18c0,1.55,1.26,2.81,2.81,2.81s2.81-1.26,2.81-2.81c0-0.95-0.48-1.79-1.2-2.3v-6.42l17.95,0.06v6.29
	c-0.79,0.5-1.31,1.37-1.31,2.37c0,1.55,1.26,2.81,2.81,2.81c1.55,0,2.81-1.26,2.81-2.81c0-1-0.53-1.87-1.31-2.37v-6.28l7.94,0.03
	l5.26,34.69H4.3L8.89,21.42z M3.52,62.15l0.38-2.91h51.13l0.44,2.91H3.52z"/>
</svg>
